<?xml version="1.0" encoding="utf-8"?>
<!-- Generator: Adobe Illustrator 26.0.2, SVG Export Plug-In . SVG Version: 6.00 Build 0)  -->
<svg version="1.1" id="Layer_1" xmlns="http://www.w3.org/2000/svg" xmlns:xlink="http://www.w3.org/1999/xlink" x="0px" y="0px"
	 width="51px" height="90px" viewBox="0 0 51 90" enable-background="new 0 0 51 90" xml:space="preserve">
<path id="Scroll_Outline" fill="#FFFFFF" d="M25.5,90C11.4,90,0,78.6,0,64.5v-39C0,11.4,11.4,0,25.5,0S51,11.4,51,25.5v39
	C51,78.6,39.6,90,25.5,90z M25.5,6C14.7,6,6,14.7,6,25.5v39C6,75.3,14.7,84,25.5,84C36.3,84,45,75.3,45,64.5v-39
	C45,14.7,36.3,6,25.5,6z"/>
<path id="Circle" fill="#FFFFFF" d="M25,13c7.2,0,13,5.8,13,13s-5.8,13-13,13s-13-5.8-13-13S17.8,13,25,13z"/>
</svg>
