<svg id="Layer_1" data-name="Layer 1" xmlns="http://www.w3.org/2000/svg" viewBox="0 0 24 24"><path id="responsive_design" data-name="responsive design" d="M22.91,13.77V12.7a.6.6,0,0,0-.6-.59h-1V3.76A.77.77,0,0,0,20.54,3H3.93a.75.75,0,0,0-.76.76V9.58H2.06A1.08,1.08,0,0,0,1,10.67v9.24A1.08,1.08,0,0,0,2.06,21H17v-.54a2.29,2.29,0,0,0-2.27-2.29H13.39V17.1h4.34v3.33a.58.58,0,0,0,.59.57h4a.6.6,0,0,0,.6-.57V17.62H21.82v.57h-3v-5h3v.57ZM8.75,19.93H7.59l-5.53,0v-.63H8.75Zm0-1.74H2.06V10.67H8.75Zm5.93,1.07a1.19,1.19,0,0,1,1.07.67H9.84v-.67ZM9.84,18.17V17.1H11.1v1.07Zm2,0V17.1h.81v1.07ZM17.73,16H9.84V14.18h7.89Zm4.09,3.25v.65h-3v-.65Zm-3.5-7.17a.58.58,0,0,0-.59.59v.39H9.84V10.67A1.08,1.08,0,0,0,8.75,9.58H4.24V4.07h16v8Zm4,2.21-1.57,1.57-.7-.7-.7.7,1.4,1.4L23,15Z"/></svg>